<?xml version="1.0" encoding="utf-8" standalone="no"?>
<!DOCTYPE svg PUBLIC "-//W3C//DTD SVG 1.1//EN"
  "http://www.w3.org/Graphics/SVG/1.1/DTD/svg11.dtd">
<svg xmlns:xlink="http://www.w3.org/1999/xlink" width="576pt" height="360pt" viewBox="0 0 576 360" xmlns="http://www.w3.org/2000/svg" version="1.1">
 <metadata>
  <rdf:RDF xmlns:dc="http://purl.org/dc/elements/1.1/" xmlns:cc="http://creativecommons.org/ns#" xmlns:rdf="http://www.w3.org/1999/02/22-rdf-syntax-ns#">
   <cc:Work>
    <dc:type rdf:resource="http://purl.org/dc/dcmitype/StillImage"/>
    <dc:date>2024-03-31T23:25:31.803936</dc:date>
    <dc:format>image/svg+xml</dc:format>
    <dc:creator>
     <cc:Agent>
      <dc:title>Matplotlib v3.8.0, https://matplotlib.org/</dc:title>
     </cc:Agent>
    </dc:creator>
   </cc:Work>
  </rdf:RDF>
 </metadata>
 <defs>
  <style type="text/css">*{stroke-linejoin: round; stroke-linecap: butt}</style>
 </defs>
 <g id="figure_1">
  <g id="patch_1">
   <path d="M 0 360 
L 576 360 
L 576 0 
L 0 0 
z
" style="fill: #ffffff"/>
  </g>
  <g id="axes_1">
   <g id="patch_2">
    <path d="M 72 320.4 
L 518.4 320.4 
L 518.4 43.2 
L 72 43.2 
z
" style="fill: #ffffff"/>
   </g>
   <g id="matplotlib.axis_1">
    <g id="xtick_1">
     <g id="line2d_1">
      <path d="M 92.290909 320.4 
L 92.290909 43.2 
" clip-path="url(#pa15a18c4c9)" style="fill: none; stroke: #b0b0b0; stroke-width: 0.8; stroke-linecap: square"/>
     </g>
     <g id="line2d_2">
      <defs>
       <path id="m39192f02f3" d="M 0 0 
L 0 3.5 
" style="stroke: #000000; stroke-width: 0.8"/>
      </defs>
      <g>
       <use xlink:href="#m39192f02f3" x="92.290909" y="320.4" style="stroke: #000000; stroke-width: 0.8"/>
      </g>
     </g>
     <g id="text_1">
      <!-- 0 -->
      <g transform="translate(89.109659 334.998438) scale(0.1 -0.1)">
       <defs>
        <path id="DejaVuSans-30" d="M 2034 4250 
Q 1547 4250 1301 3770 
Q 1056 3291 1056 2328 
Q 1056 1369 1301 889 
Q 1547 409 2034 409 
Q 2525 409 2770 889 
Q 3016 1369 3016 2328 
Q 3016 3291 2770 3770 
Q 2525 4250 2034 4250 
z
M 2034 4750 
Q 2819 4750 3233 4129 
Q 3647 3509 3647 2328 
Q 3647 1150 3233 529 
Q 2819 -91 2034 -91 
Q 1250 -91 836 529 
Q 422 1150 422 2328 
Q 422 3509 836 4129 
Q 1250 4750 2034 4750 
z
" transform="scale(0.015625)"/>
       </defs>
       <use xlink:href="#DejaVuSans-30"/>
      </g>
     </g>
    </g>
    <g id="xtick_2">
     <g id="line2d_3">
      <path d="M 143.08167 320.4 
L 143.08167 43.2 
" clip-path="url(#pa15a18c4c9)" style="fill: none; stroke: #b0b0b0; stroke-width: 0.8; stroke-linecap: square"/>
     </g>
     <g id="line2d_4">
      <g>
       <use xlink:href="#m39192f02f3" x="143.08167" y="320.4" style="stroke: #000000; stroke-width: 0.8"/>
      </g>
     </g>
     <g id="text_2">
      <!-- 100 -->
      <g transform="translate(133.53792 334.998438) scale(0.1 -0.1)">
       <defs>
        <path id="DejaVuSans-31" d="M 794 531 
L 1825 531 
L 1825 4091 
L 703 3866 
L 703 4441 
L 1819 4666 
L 2450 4666 
L 2450 531 
L 3481 531 
L 3481 0 
L 794 0 
L 794 531 
z
" transform="scale(0.015625)"/>
       </defs>
       <use xlink:href="#DejaVuSans-31"/>
       <use xlink:href="#DejaVuSans-30" x="63.623047"/>
       <use xlink:href="#DejaVuSans-30" x="127.246094"/>
      </g>
     </g>
    </g>
    <g id="xtick_3">
     <g id="line2d_5">
      <path d="M 193.872431 320.4 
L 193.872431 43.2 
" clip-path="url(#pa15a18c4c9)" style="fill: none; stroke: #b0b0b0; stroke-width: 0.8; stroke-linecap: square"/>
     </g>
     <g id="line2d_6">
      <g>
       <use xlink:href="#m39192f02f3" x="193.872431" y="320.4" style="stroke: #000000; stroke-width: 0.8"/>
      </g>
     </g>
     <g id="text_3">
      <!-- 200 -->
      <g transform="translate(184.328681 334.998438) scale(0.1 -0.1)">
       <defs>
        <path id="DejaVuSans-32" d="M 1228 531 
L 3431 531 
L 3431 0 
L 469 0 
L 469 531 
Q 828 903 1448 1529 
Q 2069 2156 2228 2338 
Q 2531 2678 2651 2914 
Q 2772 3150 2772 3378 
Q 2772 3750 2511 3984 
Q 2250 4219 1831 4219 
Q 1534 4219 1204 4116 
Q 875 4013 500 3803 
L 500 4441 
Q 881 4594 1212 4672 
Q 1544 4750 1819 4750 
Q 2544 4750 2975 4387 
Q 3406 4025 3406 3419 
Q 3406 3131 3298 2873 
Q 3191 2616 2906 2266 
Q 2828 2175 2409 1742 
Q 1991 1309 1228 531 
z
" transform="scale(0.015625)"/>
       </defs>
       <use xlink:href="#DejaVuSans-32"/>
       <use xlink:href="#DejaVuSans-30" x="63.623047"/>
       <use xlink:href="#DejaVuSans-30" x="127.246094"/>
      </g>
     </g>
    </g>
    <g id="xtick_4">
     <g id="line2d_7">
      <path d="M 244.663193 320.4 
L 244.663193 43.2 
" clip-path="url(#pa15a18c4c9)" style="fill: none; stroke: #b0b0b0; stroke-width: 0.8; stroke-linecap: square"/>
     </g>
     <g id="line2d_8">
      <g>
       <use xlink:href="#m39192f02f3" x="244.663193" y="320.4" style="stroke: #000000; stroke-width: 0.8"/>
      </g>
     </g>
     <g id="text_4">
      <!-- 300 -->
      <g transform="translate(235.119443 334.998438) scale(0.1 -0.1)">
       <defs>
        <path id="DejaVuSans-33" d="M 2597 2516 
Q 3050 2419 3304 2112 
Q 3559 1806 3559 1356 
Q 3559 666 3084 287 
Q 2609 -91 1734 -91 
Q 1441 -91 1130 -33 
Q 819 25 488 141 
L 488 750 
Q 750 597 1062 519 
Q 1375 441 1716 441 
Q 2309 441 2620 675 
Q 2931 909 2931 1356 
Q 2931 1769 2642 2001 
Q 2353 2234 1838 2234 
L 1294 2234 
L 1294 2753 
L 1863 2753 
Q 2328 2753 2575 2939 
Q 2822 3125 2822 3475 
Q 2822 3834 2567 4026 
Q 2313 4219 1838 4219 
Q 1578 4219 1281 4162 
Q 984 4106 628 3988 
L 628 4550 
Q 988 4650 1302 4700 
Q 1616 4750 1894 4750 
Q 2613 4750 3031 4423 
Q 3450 4097 3450 3541 
Q 3450 3153 3228 2886 
Q 3006 2619 2597 2516 
z
" transform="scale(0.015625)"/>
       </defs>
       <use xlink:href="#DejaVuSans-33"/>
       <use xlink:href="#DejaVuSans-30" x="63.623047"/>
       <use xlink:href="#DejaVuSans-30" x="127.246094"/>
      </g>
     </g>
    </g>
    <g id="xtick_5">
     <g id="line2d_9">
      <path d="M 295.453954 320.4 
L 295.453954 43.2 
" clip-path="url(#pa15a18c4c9)" style="fill: none; stroke: #b0b0b0; stroke-width: 0.8; stroke-linecap: square"/>
     </g>
     <g id="line2d_10">
      <g>
       <use xlink:href="#m39192f02f3" x="295.453954" y="320.4" style="stroke: #000000; stroke-width: 0.8"/>
      </g>
     </g>
     <g id="text_5">
      <!-- 400 -->
      <g transform="translate(285.910204 334.998438) scale(0.1 -0.1)">
       <defs>
        <path id="DejaVuSans-34" d="M 2419 4116 
L 825 1625 
L 2419 1625 
L 2419 4116 
z
M 2253 4666 
L 3047 4666 
L 3047 1625 
L 3713 1625 
L 3713 1100 
L 3047 1100 
L 3047 0 
L 2419 0 
L 2419 1100 
L 313 1100 
L 313 1709 
L 2253 4666 
z
" transform="scale(0.015625)"/>
       </defs>
       <use xlink:href="#DejaVuSans-34"/>
       <use xlink:href="#DejaVuSans-30" x="63.623047"/>
       <use xlink:href="#DejaVuSans-30" x="127.246094"/>
      </g>
     </g>
    </g>
    <g id="xtick_6">
     <g id="line2d_11">
      <path d="M 346.244715 320.4 
L 346.244715 43.2 
" clip-path="url(#pa15a18c4c9)" style="fill: none; stroke: #b0b0b0; stroke-width: 0.8; stroke-linecap: square"/>
     </g>
     <g id="line2d_12">
      <g>
       <use xlink:href="#m39192f02f3" x="346.244715" y="320.4" style="stroke: #000000; stroke-width: 0.8"/>
      </g>
     </g>
     <g id="text_6">
      <!-- 500 -->
      <g transform="translate(336.700965 334.998438) scale(0.1 -0.1)">
       <defs>
        <path id="DejaVuSans-35" d="M 691 4666 
L 3169 4666 
L 3169 4134 
L 1269 4134 
L 1269 2991 
Q 1406 3038 1543 3061 
Q 1681 3084 1819 3084 
Q 2600 3084 3056 2656 
Q 3513 2228 3513 1497 
Q 3513 744 3044 326 
Q 2575 -91 1722 -91 
Q 1428 -91 1123 -41 
Q 819 9 494 109 
L 494 744 
Q 775 591 1075 516 
Q 1375 441 1709 441 
Q 2250 441 2565 725 
Q 2881 1009 2881 1497 
Q 2881 1984 2565 2268 
Q 2250 2553 1709 2553 
Q 1456 2553 1204 2497 
Q 953 2441 691 2322 
L 691 4666 
z
" transform="scale(0.015625)"/>
       </defs>
       <use xlink:href="#DejaVuSans-35"/>
       <use xlink:href="#DejaVuSans-30" x="63.623047"/>
       <use xlink:href="#DejaVuSans-30" x="127.246094"/>
      </g>
     </g>
    </g>
    <g id="xtick_7">
     <g id="line2d_13">
      <path d="M 397.035476 320.4 
L 397.035476 43.2 
" clip-path="url(#pa15a18c4c9)" style="fill: none; stroke: #b0b0b0; stroke-width: 0.8; stroke-linecap: square"/>
     </g>
     <g id="line2d_14">
      <g>
       <use xlink:href="#m39192f02f3" x="397.035476" y="320.4" style="stroke: #000000; stroke-width: 0.8"/>
      </g>
     </g>
     <g id="text_7">
      <!-- 600 -->
      <g transform="translate(387.491726 334.998438) scale(0.1 -0.1)">
       <defs>
        <path id="DejaVuSans-36" d="M 2113 2584 
Q 1688 2584 1439 2293 
Q 1191 2003 1191 1497 
Q 1191 994 1439 701 
Q 1688 409 2113 409 
Q 2538 409 2786 701 
Q 3034 994 3034 1497 
Q 3034 2003 2786 2293 
Q 2538 2584 2113 2584 
z
M 3366 4563 
L 3366 3988 
Q 3128 4100 2886 4159 
Q 2644 4219 2406 4219 
Q 1781 4219 1451 3797 
Q 1122 3375 1075 2522 
Q 1259 2794 1537 2939 
Q 1816 3084 2150 3084 
Q 2853 3084 3261 2657 
Q 3669 2231 3669 1497 
Q 3669 778 3244 343 
Q 2819 -91 2113 -91 
Q 1303 -91 875 529 
Q 447 1150 447 2328 
Q 447 3434 972 4092 
Q 1497 4750 2381 4750 
Q 2619 4750 2861 4703 
Q 3103 4656 3366 4563 
z
" transform="scale(0.015625)"/>
       </defs>
       <use xlink:href="#DejaVuSans-36"/>
       <use xlink:href="#DejaVuSans-30" x="63.623047"/>
       <use xlink:href="#DejaVuSans-30" x="127.246094"/>
      </g>
     </g>
    </g>
    <g id="xtick_8">
     <g id="line2d_15">
      <path d="M 447.826237 320.4 
L 447.826237 43.2 
" clip-path="url(#pa15a18c4c9)" style="fill: none; stroke: #b0b0b0; stroke-width: 0.8; stroke-linecap: square"/>
     </g>
     <g id="line2d_16">
      <g>
       <use xlink:href="#m39192f02f3" x="447.826237" y="320.4" style="stroke: #000000; stroke-width: 0.8"/>
      </g>
     </g>
     <g id="text_8">
      <!-- 700 -->
      <g transform="translate(438.282487 334.998438) scale(0.1 -0.1)">
       <defs>
        <path id="DejaVuSans-37" d="M 525 4666 
L 3525 4666 
L 3525 4397 
L 1831 0 
L 1172 0 
L 2766 4134 
L 525 4134 
L 525 4666 
z
" transform="scale(0.015625)"/>
       </defs>
       <use xlink:href="#DejaVuSans-37"/>
       <use xlink:href="#DejaVuSans-30" x="63.623047"/>
       <use xlink:href="#DejaVuSans-30" x="127.246094"/>
      </g>
     </g>
    </g>
    <g id="xtick_9">
     <g id="line2d_17">
      <path d="M 498.616999 320.4 
L 498.616999 43.2 
" clip-path="url(#pa15a18c4c9)" style="fill: none; stroke: #b0b0b0; stroke-width: 0.8; stroke-linecap: square"/>
     </g>
     <g id="line2d_18">
      <g>
       <use xlink:href="#m39192f02f3" x="498.616999" y="320.4" style="stroke: #000000; stroke-width: 0.8"/>
      </g>
     </g>
     <g id="text_9">
      <!-- 800 -->
      <g transform="translate(489.073249 334.998438) scale(0.1 -0.1)">
       <defs>
        <path id="DejaVuSans-38" d="M 2034 2216 
Q 1584 2216 1326 1975 
Q 1069 1734 1069 1313 
Q 1069 891 1326 650 
Q 1584 409 2034 409 
Q 2484 409 2743 651 
Q 3003 894 3003 1313 
Q 3003 1734 2745 1975 
Q 2488 2216 2034 2216 
z
M 1403 2484 
Q 997 2584 770 2862 
Q 544 3141 544 3541 
Q 544 4100 942 4425 
Q 1341 4750 2034 4750 
Q 2731 4750 3128 4425 
Q 3525 4100 3525 3541 
Q 3525 3141 3298 2862 
Q 3072 2584 2669 2484 
Q 3125 2378 3379 2068 
Q 3634 1759 3634 1313 
Q 3634 634 3220 271 
Q 2806 -91 2034 -91 
Q 1263 -91 848 271 
Q 434 634 434 1313 
Q 434 1759 690 2068 
Q 947 2378 1403 2484 
z
M 1172 3481 
Q 1172 3119 1398 2916 
Q 1625 2713 2034 2713 
Q 2441 2713 2670 2916 
Q 2900 3119 2900 3481 
Q 2900 3844 2670 4047 
Q 2441 4250 2034 4250 
Q 1625 4250 1398 4047 
Q 1172 3844 1172 3481 
z
" transform="scale(0.015625)"/>
       </defs>
       <use xlink:href="#DejaVuSans-38"/>
       <use xlink:href="#DejaVuSans-30" x="63.623047"/>
       <use xlink:href="#DejaVuSans-30" x="127.246094"/>
      </g>
     </g>
    </g>
    <g id="text_10">
     <!-- Epoch -->
     <g transform="translate(278.246875 348.676562) scale(0.1 -0.1)">
      <defs>
       <path id="DejaVuSans-Bold-45" d="M 588 4666 
L 3834 4666 
L 3834 3756 
L 1791 3756 
L 1791 2888 
L 3713 2888 
L 3713 1978 
L 1791 1978 
L 1791 909 
L 3903 909 
L 3903 0 
L 588 0 
L 588 4666 
z
" transform="scale(0.015625)"/>
       <path id="DejaVuSans-Bold-70" d="M 1656 506 
L 1656 -1331 
L 538 -1331 
L 538 3500 
L 1656 3500 
L 1656 2988 
Q 1888 3294 2169 3439 
Q 2450 3584 2816 3584 
Q 3463 3584 3878 3070 
Q 4294 2556 4294 1747 
Q 4294 938 3878 423 
Q 3463 -91 2816 -91 
Q 2450 -91 2169 54 
Q 1888 200 1656 506 
z
M 2400 2772 
Q 2041 2772 1848 2508 
Q 1656 2244 1656 1747 
Q 1656 1250 1848 986 
Q 2041 722 2400 722 
Q 2759 722 2948 984 
Q 3138 1247 3138 1747 
Q 3138 2247 2948 2509 
Q 2759 2772 2400 2772 
z
" transform="scale(0.015625)"/>
       <path id="DejaVuSans-Bold-6f" d="M 2203 2784 
Q 1831 2784 1636 2517 
Q 1441 2250 1441 1747 
Q 1441 1244 1636 976 
Q 1831 709 2203 709 
Q 2569 709 2762 976 
Q 2956 1244 2956 1747 
Q 2956 2250 2762 2517 
Q 2569 2784 2203 2784 
z
M 2203 3584 
Q 3106 3584 3614 3096 
Q 4122 2609 4122 1747 
Q 4122 884 3614 396 
Q 3106 -91 2203 -91 
Q 1297 -91 786 396 
Q 275 884 275 1747 
Q 275 2609 786 3096 
Q 1297 3584 2203 3584 
z
" transform="scale(0.015625)"/>
       <path id="DejaVuSans-Bold-63" d="M 3366 3391 
L 3366 2478 
Q 3138 2634 2908 2709 
Q 2678 2784 2431 2784 
Q 1963 2784 1702 2511 
Q 1441 2238 1441 1747 
Q 1441 1256 1702 982 
Q 1963 709 2431 709 
Q 2694 709 2930 787 
Q 3166 866 3366 1019 
L 3366 103 
Q 3103 6 2833 -42 
Q 2563 -91 2291 -91 
Q 1344 -91 809 395 
Q 275 881 275 1747 
Q 275 2613 809 3098 
Q 1344 3584 2291 3584 
Q 2566 3584 2833 3536 
Q 3100 3488 3366 3391 
z
" transform="scale(0.015625)"/>
       <path id="DejaVuSans-Bold-68" d="M 4056 2131 
L 4056 0 
L 2931 0 
L 2931 347 
L 2931 1625 
Q 2931 2084 2911 2256 
Q 2891 2428 2841 2509 
Q 2775 2619 2662 2680 
Q 2550 2741 2406 2741 
Q 2056 2741 1856 2470 
Q 1656 2200 1656 1722 
L 1656 0 
L 538 0 
L 538 4863 
L 1656 4863 
L 1656 2988 
Q 1909 3294 2193 3439 
Q 2478 3584 2822 3584 
Q 3428 3584 3742 3212 
Q 4056 2841 4056 2131 
z
" transform="scale(0.015625)"/>
      </defs>
      <use xlink:href="#DejaVuSans-Bold-45"/>
      <use xlink:href="#DejaVuSans-Bold-70" x="68.310547"/>
      <use xlink:href="#DejaVuSans-Bold-6f" x="139.892578"/>
      <use xlink:href="#DejaVuSans-Bold-63" x="208.59375"/>
      <use xlink:href="#DejaVuSans-Bold-68" x="267.871094"/>
     </g>
    </g>
   </g>
   <g id="matplotlib.axis_2">
    <g id="ytick_1">
     <g id="line2d_19">
      <path d="M 72 292.342886 
L 518.4 292.342886 
" clip-path="url(#pa15a18c4c9)" style="fill: none; stroke: #b0b0b0; stroke-width: 0.8; stroke-linecap: square"/>
     </g>
     <g id="line2d_20">
      <defs>
       <path id="m8682e3ad8c" d="M 0 0 
L -3.5 0 
" style="stroke: #000000; stroke-width: 0.8"/>
      </defs>
      <g>
       <use xlink:href="#m8682e3ad8c" x="72" y="292.342886" style="stroke: #000000; stroke-width: 0.8"/>
      </g>
     </g>
     <g id="text_11">
      <!-- $\mathdefault{10^{-1}}$ -->
      <g transform="translate(41.5 296.142105) scale(0.1 -0.1)">
       <defs>
        <path id="DejaVuSans-2212" d="M 678 2272 
L 4684 2272 
L 4684 1741 
L 678 1741 
L 678 2272 
z
" transform="scale(0.015625)"/>
       </defs>
       <use xlink:href="#DejaVuSans-31" transform="translate(0 0.684375)"/>
       <use xlink:href="#DejaVuSans-30" transform="translate(63.623047 0.684375)"/>
       <use xlink:href="#DejaVuSans-2212" transform="translate(128.203125 38.965625) scale(0.7)"/>
       <use xlink:href="#DejaVuSans-31" transform="translate(186.855469 38.965625) scale(0.7)"/>
      </g>
     </g>
    </g>
    <g id="ytick_2">
     <g id="line2d_21">
      <path d="M 72 164.673356 
L 518.4 164.673356 
" clip-path="url(#pa15a18c4c9)" style="fill: none; stroke: #b0b0b0; stroke-width: 0.8; stroke-linecap: square"/>
     </g>
     <g id="line2d_22">
      <g>
       <use xlink:href="#m8682e3ad8c" x="72" y="164.673356" style="stroke: #000000; stroke-width: 0.8"/>
      </g>
     </g>
     <g id="text_12">
      <!-- $\mathdefault{10^{0}}$ -->
      <g transform="translate(47.4 168.472575) scale(0.1 -0.1)">
       <use xlink:href="#DejaVuSans-31" transform="translate(0 0.765625)"/>
       <use xlink:href="#DejaVuSans-30" transform="translate(63.623047 0.765625)"/>
       <use xlink:href="#DejaVuSans-30" transform="translate(128.203125 39.046875) scale(0.7)"/>
      </g>
     </g>
    </g>
    <g id="ytick_3">
     <g id="line2d_23">
      <defs>
       <path id="m17848ac219" d="M 0 0 
L -2 0 
" style="stroke: #000000; stroke-width: 0.6"/>
      </defs>
      <g>
       <use xlink:href="#m17848ac219" x="72" y="312.119147" style="stroke: #000000; stroke-width: 0.6"/>
      </g>
     </g>
    </g>
    <g id="ytick_4">
     <g id="line2d_24">
      <g>
       <use xlink:href="#m17848ac219" x="72" y="304.715342" style="stroke: #000000; stroke-width: 0.6"/>
      </g>
     </g>
    </g>
    <g id="ytick_5">
     <g id="line2d_25">
      <g>
       <use xlink:href="#m17848ac219" x="72" y="298.184723" style="stroke: #000000; stroke-width: 0.6"/>
      </g>
     </g>
    </g>
    <g id="ytick_6">
     <g id="line2d_26">
      <g>
       <use xlink:href="#m17848ac219" x="72" y="253.910528" style="stroke: #000000; stroke-width: 0.6"/>
      </g>
     </g>
    </g>
    <g id="ytick_7">
     <g id="line2d_27">
      <g>
       <use xlink:href="#m17848ac219" x="72" y="231.42904" style="stroke: #000000; stroke-width: 0.6"/>
      </g>
     </g>
    </g>
    <g id="ytick_8">
     <g id="line2d_28">
      <g>
       <use xlink:href="#m17848ac219" x="72" y="215.47817" style="stroke: #000000; stroke-width: 0.6"/>
      </g>
     </g>
    </g>
    <g id="ytick_9">
     <g id="line2d_29">
      <g>
       <use xlink:href="#m17848ac219" x="72" y="203.105714" style="stroke: #000000; stroke-width: 0.6"/>
      </g>
     </g>
    </g>
    <g id="ytick_10">
     <g id="line2d_30">
      <g>
       <use xlink:href="#m17848ac219" x="72" y="192.996682" style="stroke: #000000; stroke-width: 0.6"/>
      </g>
     </g>
    </g>
    <g id="ytick_11">
     <g id="line2d_31">
      <g>
       <use xlink:href="#m17848ac219" x="72" y="184.449616" style="stroke: #000000; stroke-width: 0.6"/>
      </g>
     </g>
    </g>
    <g id="ytick_12">
     <g id="line2d_32">
      <g>
       <use xlink:href="#m17848ac219" x="72" y="177.045812" style="stroke: #000000; stroke-width: 0.6"/>
      </g>
     </g>
    </g>
    <g id="ytick_13">
     <g id="line2d_33">
      <g>
       <use xlink:href="#m17848ac219" x="72" y="170.515193" style="stroke: #000000; stroke-width: 0.6"/>
      </g>
     </g>
    </g>
    <g id="ytick_14">
     <g id="line2d_34">
      <g>
       <use xlink:href="#m17848ac219" x="72" y="126.240998" style="stroke: #000000; stroke-width: 0.6"/>
      </g>
     </g>
    </g>
    <g id="ytick_15">
     <g id="line2d_35">
      <g>
       <use xlink:href="#m17848ac219" x="72" y="103.759509" style="stroke: #000000; stroke-width: 0.6"/>
      </g>
     </g>
    </g>
    <g id="ytick_16">
     <g id="line2d_36">
      <g>
       <use xlink:href="#m17848ac219" x="72" y="87.80864" style="stroke: #000000; stroke-width: 0.6"/>
      </g>
     </g>
    </g>
    <g id="ytick_17">
     <g id="line2d_37">
      <g>
       <use xlink:href="#m17848ac219" x="72" y="75.436184" style="stroke: #000000; stroke-width: 0.6"/>
      </g>
     </g>
    </g>
    <g id="ytick_18">
     <g id="line2d_38">
      <g>
       <use xlink:href="#m17848ac219" x="72" y="65.327151" style="stroke: #000000; stroke-width: 0.6"/>
      </g>
     </g>
    </g>
    <g id="ytick_19">
     <g id="line2d_39">
      <g>
       <use xlink:href="#m17848ac219" x="72" y="56.780086" style="stroke: #000000; stroke-width: 0.6"/>
      </g>
     </g>
    </g>
    <g id="ytick_20">
     <g id="line2d_40">
      <g>
       <use xlink:href="#m17848ac219" x="72" y="49.376282" style="stroke: #000000; stroke-width: 0.6"/>
      </g>
     </g>
    </g>
    <g id="text_13">
     <!-- Loss -->
     <g transform="translate(35.420313 194.372656) rotate(-90) scale(0.1 -0.1)">
      <defs>
       <path id="DejaVuSans-Bold-4c" d="M 588 4666 
L 1791 4666 
L 1791 909 
L 3903 909 
L 3903 0 
L 588 0 
L 588 4666 
z
" transform="scale(0.015625)"/>
       <path id="DejaVuSans-Bold-73" d="M 3272 3391 
L 3272 2541 
Q 2913 2691 2578 2766 
Q 2244 2841 1947 2841 
Q 1628 2841 1473 2761 
Q 1319 2681 1319 2516 
Q 1319 2381 1436 2309 
Q 1553 2238 1856 2203 
L 2053 2175 
Q 2913 2066 3209 1816 
Q 3506 1566 3506 1031 
Q 3506 472 3093 190 
Q 2681 -91 1863 -91 
Q 1516 -91 1145 -36 
Q 775 19 384 128 
L 384 978 
Q 719 816 1070 734 
Q 1422 653 1784 653 
Q 2113 653 2278 743 
Q 2444 834 2444 1013 
Q 2444 1163 2330 1236 
Q 2216 1309 1875 1350 
L 1678 1375 
Q 931 1469 631 1722 
Q 331 1975 331 2491 
Q 331 3047 712 3315 
Q 1094 3584 1881 3584 
Q 2191 3584 2531 3537 
Q 2872 3491 3272 3391 
z
" transform="scale(0.015625)"/>
      </defs>
      <use xlink:href="#DejaVuSans-Bold-4c"/>
      <use xlink:href="#DejaVuSans-Bold-6f" x="63.720703"/>
      <use xlink:href="#DejaVuSans-Bold-73" x="132.421875"/>
      <use xlink:href="#DejaVuSans-Bold-73" x="191.943359"/>
     </g>
    </g>
   </g>
   <g id="line2d_41">
    <path d="M 92.290909 135.635788 
L 92.798817 138.619179 
L 93.814632 159.41875 
L 94.830447 238.321232 
L 95.846262 251.325899 
L 96.35417 251.677861 
L 97.369985 252.870126 
L 97.877893 259.763711 
L 98.3858 264.679261 
L 98.893708 264.016198 
L 99.401616 271.615924 
L 99.909523 268.790042 
L 100.417431 268.396716 
L 100.925338 269.734316 
L 101.433246 270.516582 
L 102.449061 274.861092 
L 102.956969 276.167798 
L 103.464877 276.865572 
L 103.972784 273.538151 
L 104.480692 277.069664 
L 104.988599 274.385444 
L 105.496507 282.209098 
L 106.004415 270.608187 
L 106.512322 280.928631 
L 107.02023 279.455042 
L 107.528137 283.623882 
L 108.036045 280.625405 
L 108.543953 273.943638 
L 109.05186 284.20257 
L 109.559768 286.261035 
L 110.067676 276.630506 
L 110.575583 272.400089 
L 111.083491 281.984751 
L 111.591398 283.639046 
L 112.099306 280.95327 
L 112.607214 285.748937 
L 113.115121 280.160063 
L 113.623029 263.863565 
L 114.130936 286.798044 
L 114.638844 287.235394 
L 115.146752 286.982436 
L 115.654659 283.478607 
L 116.670474 290.690597 
L 117.178382 285.721379 
L 117.68629 291.055207 
L 118.194197 291.092018 
L 119.210013 278.002867 
L 119.71792 286.923444 
L 120.225828 285.280136 
L 120.733735 287.887564 
L 121.241643 291.12035 
L 121.749551 291.006443 
L 122.257458 291.097685 
L 122.765366 289.884439 
L 123.273273 290.333521 
L 123.781181 291.738774 
L 124.289089 286.60989 
L 124.796996 279.265126 
L 125.304904 290.600179 
L 125.812811 291.18419 
L 126.320719 278.678046 
L 126.828627 294.588497 
L 127.336534 292.818096 
L 127.844442 293.696152 
L 128.35235 294.964486 
L 128.860257 292.875266 
L 129.368165 291.786579 
L 129.876072 291.048358 
L 130.38398 293.658367 
L 130.891888 294.173189 
L 131.399795 294.100272 
L 131.907703 287.277836 
L 132.41561 294.71542 
L 132.923518 295.936178 
L 133.431426 294.255459 
L 134.447241 282.748196 
L 134.955148 286.791339 
L 135.463056 295.091606 
L 135.970964 289.080969 
L 136.478871 288.385576 
L 136.986779 291.231803 
L 137.494687 280.239223 
L 138.002594 295.547971 
L 138.510502 293.927279 
L 139.018409 294.575412 
L 139.526317 294.050827 
L 140.034225 296.759868 
L 140.542132 285.861372 
L 141.05004 295.53562 
L 141.557947 277.353991 
L 142.065855 289.966256 
L 142.573763 297.422479 
L 143.08167 289.68944 
L 143.589578 293.159135 
L 144.097485 289.666109 
L 144.605393 287.607754 
L 145.113301 294.875852 
L 145.621208 297.940915 
L 146.129116 292.364363 
L 146.637024 293.649002 
L 147.144931 295.690148 
L 148.160746 298.675801 
L 148.668654 296.980848 
L 149.176562 290.488796 
L 149.684469 296.737164 
L 150.192377 294.928472 
L 150.700284 295.627061 
L 151.208192 278.855172 
L 151.7161 293.51162 
L 152.224007 296.952312 
L 152.731915 299.159887 
L 153.239823 286.851302 
L 153.74773 297.334808 
L 154.255638 297.631341 
L 154.763545 294.310913 
L 155.271453 296.910632 
L 155.779361 286.35564 
L 156.287268 295.512087 
L 156.795176 298.4338 
L 157.303083 296.871789 
L 157.810991 299.30392 
L 158.318899 290.772538 
L 158.826806 295.561681 
L 159.334714 297.402472 
L 159.842621 295.40507 
L 160.350529 296.454598 
L 160.858437 298.816959 
L 161.366344 298.093344 
L 161.874252 295.899893 
L 162.38216 294.370373 
L 162.890067 297.158532 
L 163.397975 293.019965 
L 163.905882 298.342836 
L 164.41379 298.587934 
L 164.921698 296.111063 
L 165.429605 286.167283 
L 165.937513 297.50712 
L 166.44542 285.751016 
L 166.953328 289.503284 
L 167.461236 299.914582 
L 167.969143 292.595658 
L 168.477051 299.353954 
L 168.984958 296.535594 
L 169.492866 300.110519 
L 170.000774 297.293811 
L 170.508681 293.20793 
L 171.016589 286.325219 
L 171.524497 297.73594 
L 172.032404 299.573684 
L 172.540312 299.288868 
L 173.048219 289.590649 
L 173.556127 300.537523 
L 174.064035 289.802242 
L 174.571942 298.703083 
L 175.07985 300.616128 
L 175.587757 297.427491 
L 176.095665 295.537861 
L 176.603573 299.074577 
L 177.11148 299.702339 
L 177.619388 299.391372 
L 178.127295 302.0578 
L 178.635203 299.152755 
L 179.143111 298.755871 
L 179.651018 298.915676 
L 180.158926 298.248748 
L 180.666834 292.517188 
L 181.174741 299.613096 
L 182.190556 301.278396 
L 182.698464 300.280083 
L 183.206372 298.098454 
L 183.714279 297.205224 
L 184.222187 301.234679 
L 184.730094 300.378487 
L 185.238002 301.700453 
L 185.74591 301.431126 
L 186.253817 301.574299 
L 186.761725 301.907607 
L 187.269632 298.590463 
L 187.77754 299.242088 
L 188.285448 291.279141 
L 188.793355 297.725701 
L 189.301263 294.231211 
L 189.809171 300.677981 
L 190.317078 300.748974 
L 190.824986 286.81781 
L 191.332893 297.741108 
L 191.840801 298.743207 
L 192.348709 296.807572 
L 192.856616 299.208427 
L 193.364524 297.173769 
L 193.872431 298.71806 
L 194.380339 302.486594 
L 194.888247 297.393204 
L 195.396154 299.244464 
L 195.904062 301.585561 
L 196.41197 300.193076 
L 196.919877 299.996908 
L 197.427785 300.497195 
L 197.935692 290.780188 
L 198.4436 302.427111 
L 198.951508 301.398372 
L 199.459415 299.554988 
L 199.967323 297.024652 
L 200.47523 296.372489 
L 200.983138 301.339909 
L 201.491046 289.622963 
L 201.998953 302.157243 
L 202.506861 301.201735 
L 203.014768 300.954285 
L 203.522676 300.840595 
L 204.030584 300.903258 
L 204.538491 285.784915 
L 205.046399 303.088748 
L 205.554307 302.59078 
L 206.062214 290.884106 
L 206.570122 301.974751 
L 207.078029 303.783834 
L 207.585937 298.131901 
L 208.093845 302.946542 
L 209.10966 298.356974 
L 209.617567 299.770057 
L 210.125475 296.828656 
L 210.633383 300.7867 
L 211.14129 300.443455 
L 211.649198 299.71513 
L 212.157105 302.249895 
L 212.665013 288.374142 
L 213.172921 291.510615 
L 213.680828 300.6973 
L 214.188736 301.094237 
L 214.696644 301.978959 
L 215.204551 301.588524 
L 215.712459 296.051863 
L 216.220366 302.728219 
L 216.728274 302.258164 
L 217.236182 303.108092 
L 217.744089 301.684889 
L 218.251997 288.894527 
L 218.759904 300.509126 
L 219.267812 299.578626 
L 219.77572 294.439742 
L 220.283627 303.443612 
L 221.299442 294.842933 
L 221.80735 302.841681 
L 222.315258 299.946575 
L 222.823165 300.672681 
L 223.331073 299.616878 
L 223.838981 302.557041 
L 224.346888 296.729379 
L 225.362703 303.455619 
L 225.870611 298.204898 
L 226.378519 304.019156 
L 226.886426 301.669348 
L 227.902241 301.311808 
L 228.410149 299.473836 
L 228.918057 298.829013 
L 229.425964 299.053731 
L 229.933872 302.205731 
L 230.441779 303.069811 
L 230.949687 290.909485 
L 231.457595 299.581874 
L 232.47341 302.298701 
L 232.981318 301.083751 
L 233.489225 299.087876 
L 233.997133 299.712035 
L 234.50504 303.597645 
L 235.012948 301.573508 
L 235.520856 300.932426 
L 236.028763 302.419778 
L 236.536671 300.302144 
L 237.044578 302.990845 
L 237.552486 300.80802 
L 238.060394 294.426542 
L 238.568301 303.176803 
L 239.076209 304.259454 
L 239.584117 287.466375 
L 240.092024 296.659486 
L 240.599932 299.97267 
L 241.107839 298.476673 
L 241.615747 303.807268 
L 242.631562 298.72116 
L 243.13947 297.63689 
L 243.647377 298.675338 
L 244.155285 298.433311 
L 244.663193 301.722382 
L 245.1711 303.838036 
L 245.679008 296.627736 
L 246.186915 303.852086 
L 246.694823 299.432748 
L 247.202731 291.222896 
L 247.710638 303.834351 
L 248.218546 300.898327 
L 248.726454 295.501512 
L 249.234361 302.596948 
L 249.742269 300.566557 
L 250.250176 303.473895 
L 250.758084 303.727241 
L 251.265992 302.660977 
L 251.773899 303.006791 
L 252.281807 295.519957 
L 252.789714 304.069801 
L 253.297622 303.306862 
L 253.80553 301.870077 
L 254.313437 293.614226 
L 255.329252 302.750872 
L 255.83716 303.274501 
L 256.345068 300.457556 
L 256.852975 300.095523 
L 257.360883 301.321881 
L 257.868791 296.04258 
L 258.376698 302.08903 
L 258.884606 302.182841 
L 259.392513 298.222244 
L 259.900421 300.822676 
L 260.408329 301.220767 
L 260.916236 304.294958 
L 261.424144 301.552146 
L 261.932051 300.863145 
L 262.439959 304.084625 
L 262.947867 300.784684 
L 263.455774 304.314497 
L 263.963682 298.906431 
L 264.471589 302.596128 
L 264.979497 304.195467 
L 265.487405 304.560804 
L 265.995312 300.486912 
L 266.50322 303.934183 
L 267.519035 295.645008 
L 268.026943 300.335053 
L 268.53485 296.531384 
L 269.042758 303.66355 
L 269.550666 303.4047 
L 270.058573 292.747317 
L 270.566481 303.927483 
L 271.074388 303.807146 
L 271.582296 298.491312 
L 272.090204 299.930169 
L 272.598111 302.095625 
L 273.106019 303.347625 
L 273.613926 298.089742 
L 274.121834 303.682969 
L 274.629742 304.091032 
L 275.137649 298.070894 
L 275.645557 303.772619 
L 276.153465 303.800274 
L 276.661372 303.391473 
L 277.16928 300.617265 
L 277.677187 301.905781 
L 278.185095 304.186858 
L 278.693003 302.64325 
L 279.708818 303.663013 
L 280.216725 288.144932 
L 280.724633 303.62055 
L 281.232541 298.436843 
L 281.740448 300.174203 
L 282.248356 300.362344 
L 282.756264 304.967254 
L 283.264171 302.492462 
L 283.772079 304.282829 
L 284.279986 302.240244 
L 284.787894 303.667999 
L 285.295802 300.847419 
L 285.803709 304.846546 
L 286.311617 302.906563 
L 286.819524 287.295579 
L 287.327432 302.69709 
L 287.83534 303.253107 
L 288.343247 303.019726 
L 288.851155 294.642214 
L 289.359062 304.274058 
L 289.86697 302.558025 
L 290.374878 298.166112 
L 290.882785 303.510738 
L 291.390693 304.407244 
L 291.898601 304.253452 
L 292.406508 298.203264 
L 292.914416 294.217266 
L 293.422323 295.502592 
L 293.930231 293.552889 
L 294.438139 299.949873 
L 294.946046 303.503584 
L 295.453954 304.380101 
L 295.961861 299.969788 
L 296.469769 305.113319 
L 296.977677 301.439254 
L 297.485584 303.648098 
L 297.993492 303.951874 
L 298.501399 301.219909 
L 299.009307 304.347769 
L 299.517215 305.662502 
L 300.025122 303.648625 
L 300.53303 302.227529 
L 301.040938 298.468391 
L 301.548845 298.921955 
L 302.056753 302.196256 
L 302.56466 303.865622 
L 303.072568 302.881354 
L 303.580476 304.87076 
L 304.088383 302.215143 
L 304.596291 305.14519 
L 305.104198 300.536963 
L 305.612106 302.646678 
L 306.120014 304.096261 
L 306.627921 304.491134 
L 307.135829 304.294343 
L 307.643736 298.64207 
L 308.151644 303.90119 
L 308.659552 303.134168 
L 309.167459 304.791029 
L 309.675367 303.280746 
L 310.691182 302.183551 
L 311.19909 299.027799 
L 311.706997 303.445635 
L 312.214905 303.269908 
L 312.722813 303.699521 
L 313.23072 294.49776 
L 313.738628 296.363996 
L 314.246535 304.764447 
L 314.754443 300.324485 
L 315.262351 304.656754 
L 315.770258 304.491212 
L 316.278166 303.238654 
L 316.786074 299.804349 
L 317.293981 305.157061 
L 317.801889 303.225834 
L 318.309796 304.223846 
L 318.817704 303.062202 
L 319.325612 296.358737 
L 319.833519 301.960073 
L 320.341427 297.333944 
L 320.849334 305.050199 
L 321.357242 303.197384 
L 321.86515 304.335264 
L 322.373057 303.201283 
L 322.880965 304.910932 
L 323.388872 305.002684 
L 323.89678 305.923791 
L 324.404688 301.312512 
L 324.912595 305.845885 
L 325.420503 301.378122 
L 325.928411 299.603084 
L 326.436318 304.137052 
L 326.944226 305.902384 
L 327.452133 302.064652 
L 327.960041 305.634968 
L 328.467949 296.117417 
L 328.975856 304.678873 
L 329.483764 303.938786 
L 329.991671 297.936907 
L 330.499579 303.49149 
L 331.007487 305.850181 
L 331.515394 301.937893 
L 332.531209 305.481298 
L 333.039117 300.452468 
L 333.547025 299.904487 
L 334.054932 300.650923 
L 334.56284 304.932234 
L 335.070748 303.170123 
L 335.578655 304.825209 
L 336.086563 302.725573 
L 336.59447 305.391647 
L 337.102378 300.054945 
L 337.610286 306.124471 
L 338.118193 303.349454 
L 338.626101 305.340449 
L 339.134008 305.772373 
L 339.641916 305.397178 
L 340.149824 297.936117 
L 340.657731 298.263759 
L 341.165639 293.253114 
L 341.673546 305.318144 
L 342.181454 304.066713 
L 342.689362 300.775622 
L 343.197269 300.610973 
L 343.705177 305.074237 
L 344.213085 305.775668 
L 344.720992 305.079471 
L 345.2289 291.474644 
L 345.736807 299.669978 
L 346.244715 305.673523 
L 346.752623 304.935236 
L 347.26053 302.828448 
L 347.768438 305.629524 
L 348.276345 304.658854 
L 348.784253 302.933135 
L 349.292161 299.524795 
L 349.800068 298.154499 
L 350.307976 306.057751 
L 350.815883 303.303479 
L 351.323791 305.191566 
L 352.339606 302.061275 
L 352.847514 303.466493 
L 353.355422 303.721565 
L 353.863329 300.1376 
L 354.371237 304.70671 
L 355.387052 303.632555 
L 355.89496 305.54228 
L 356.910775 304.561427 
L 357.418682 303.656123 
L 357.92659 303.92925 
L 358.434498 300.565517 
L 358.942405 306.152657 
L 359.450313 305.640386 
L 359.958221 304.766804 
L 360.466128 306.115775 
L 360.974036 302.672483 
L 361.481943 304.403172 
L 361.989851 305.02558 
L 362.497759 304.586882 
L 363.005666 298.042955 
L 363.513574 306.135156 
L 364.021481 303.121262 
L 364.529389 306.531576 
L 365.037297 304.740362 
L 365.545204 299.630605 
L 366.053112 304.104825 
L 366.561019 304.445838 
L 367.068927 298.562423 
L 367.576835 304.658684 
L 368.084742 303.727099 
L 368.59265 304.432874 
L 369.100558 306.375793 
L 369.608465 305.731146 
L 370.116373 300.606748 
L 371.132188 306.479433 
L 371.640096 301.655254 
L 372.148003 306.677536 
L 372.655911 304.892896 
L 373.163818 306.008794 
L 373.671726 304.72075 
L 374.179634 302.948503 
L 374.687541 305.196327 
L 375.195449 303.357596 
L 375.703356 306.522906 
L 376.211264 304.835558 
L 376.719172 305.5242 
L 377.227079 302.903979 
L 377.734987 306.732978 
L 378.242895 306.034849 
L 378.750802 303.828349 
L 379.25871 304.444019 
L 379.766617 292.995933 
L 380.274525 306.174421 
L 380.782433 304.225059 
L 381.29034 300.055899 
L 381.798248 306.68478 
L 382.306155 302.817948 
L 382.814063 305.159279 
L 383.321971 303.750422 
L 383.829878 305.013284 
L 384.337786 297.185448 
L 384.845693 306.576821 
L 385.353601 306.478511 
L 385.861509 302.389119 
L 386.369416 306.44718 
L 386.877324 303.083272 
L 387.385232 305.24735 
L 387.893139 298.182481 
L 388.401047 305.617991 
L 388.908954 302.657842 
L 389.416862 305.990889 
L 390.432677 300.60262 
L 390.940585 302.848186 
L 391.448492 306.858313 
L 391.9564 305.608335 
L 392.972215 295.395938 
L 393.480123 298.918244 
L 393.98803 304.918638 
L 394.495938 306.360636 
L 395.003846 301.333335 
L 395.511753 305.053727 
L 396.019661 305.136354 
L 396.527569 306.544042 
L 397.035476 301.090169 
L 397.543384 294.251927 
L 398.051291 302.625614 
L 398.559199 305.625671 
L 399.067107 304.664895 
L 399.575014 306.18661 
L 400.590829 306.97731 
L 401.098737 305.922683 
L 401.606645 306.505634 
L 402.114552 306.401653 
L 402.62246 306.590787 
L 403.130368 305.900554 
L 403.638275 305.832053 
L 404.146183 301.857211 
L 404.65409 305.933741 
L 405.161998 307.330061 
L 405.669906 306.694653 
L 406.177813 304.306444 
L 406.685721 305.609862 
L 407.193628 307.315074 
L 407.701536 303.893074 
L 408.209444 306.656317 
L 408.717351 306.409218 
L 409.225259 305.263457 
L 409.733166 300.316772 
L 410.241074 305.659707 
L 410.748982 304.441213 
L 411.256889 302.802506 
L 411.764797 302.555581 
L 412.272705 305.61944 
L 412.780612 305.240542 
L 413.28852 306.036335 
L 413.796427 296.380633 
L 414.304335 305.835488 
L 414.812243 304.762106 
L 415.32015 304.854264 
L 415.828058 307.135178 
L 416.335965 304.831682 
L 416.843873 303.456614 
L 417.351781 305.670203 
L 417.859688 305.778157 
L 418.367596 304.819751 
L 418.875503 306.086258 
L 419.383411 296.295554 
L 420.399226 306.625416 
L 420.907134 305.959348 
L 421.415042 300.057884 
L 421.922949 303.76038 
L 422.430857 304.587031 
L 422.938764 306.708012 
L 423.446672 303.270195 
L 423.95458 304.376041 
L 424.970395 304.445607 
L 425.98621 304.842731 
L 426.494118 306.618986 
L 427.002025 307.270424 
L 427.509933 306.309743 
L 428.01784 304.523607 
L 428.525748 306.295263 
L 429.033656 304.604396 
L 429.541563 304.623065 
L 430.049471 305.442045 
L 430.557379 304.487725 
L 431.065286 307.154282 
L 431.573194 305.407859 
L 432.081101 305.443436 
L 432.589009 303.962046 
L 433.096917 304.355228 
L 433.604824 305.783495 
L 434.112732 305.659859 
L 434.620639 301.88878 
L 435.128547 305.804551 
L 435.636455 305.226494 
L 436.144362 305.994784 
L 436.65227 306.06501 
L 437.160177 304.956646 
L 437.668085 305.429829 
L 438.175993 303.8963 
L 438.6839 306.841226 
L 439.191808 302.454629 
L 439.699716 306.318103 
L 440.207623 307.484878 
L 441.223438 305.880532 
L 441.731346 306.135129 
L 442.239254 303.712476 
L 442.747161 306.813348 
L 443.255069 306.073222 
L 443.762976 305.962807 
L 444.270884 306.176918 
L 444.778792 301.898487 
L 445.286699 306.900119 
L 445.794607 303.274265 
L 446.302515 306.659072 
L 446.810422 306.722413 
L 447.31833 303.817521 
L 447.826237 306.970012 
L 448.334145 298.380585 
L 448.842053 304.916083 
L 449.34996 306.861356 
L 449.857868 306.529292 
L 450.365775 305.084955 
L 450.873683 305.695078 
L 451.381591 306.756117 
L 451.889498 304.952892 
L 452.397406 301.295429 
L 452.905313 304.540354 
L 453.413221 306.457256 
L 453.921129 306.197275 
L 454.429036 304.322311 
L 454.936944 301.110556 
L 455.444852 304.774165 
L 455.952759 304.568482 
L 456.460667 306.362471 
L 456.968574 305.380248 
L 457.476482 306.998136 
L 457.98439 303.196891 
L 458.492297 307.516425 
L 459.000205 304.702203 
L 460.01602 306.682838 
L 460.523928 306.830195 
L 461.031835 303.968353 
L 461.539743 299.505999 
L 462.04765 306.154687 
L 463.063466 306.666554 
L 463.571373 306.23393 
L 464.079281 303.703181 
L 464.587189 305.255666 
L 465.095096 307.655273 
L 465.603004 305.863717 
L 466.110911 305.18352 
L 466.618819 306.490037 
L 467.126727 302.884037 
L 467.634634 302.981175 
L 468.142542 300.997946 
L 468.650449 305.591849 
L 469.158357 306.859993 
L 469.666265 306.792286 
L 470.174172 304.095975 
L 470.68208 306.535621 
L 471.189987 306.183275 
L 471.697895 301.799467 
L 472.205803 303.568862 
L 472.71371 306.144189 
L 473.221618 304.690294 
L 473.729526 306.22484 
L 474.237433 305.052833 
L 474.745341 307.550083 
L 475.253248 305.985648 
L 475.761156 306.083447 
L 476.269064 306.408563 
L 476.776971 304.153954 
L 477.284879 302.656081 
L 477.792786 307.381023 
L 478.300694 300.659711 
L 478.808602 307.368102 
L 479.316509 307.280072 
L 479.824417 303.627268 
L 480.332324 306.693647 
L 480.840232 291.705978 
L 481.34814 307.632637 
L 481.856047 306.948272 
L 482.363955 306.946288 
L 482.871863 304.51135 
L 483.37977 301.392224 
L 483.887678 305.074928 
L 484.395585 307.497896 
L 484.903493 306.774491 
L 485.411401 304.452339 
L 485.919308 307.639071 
L 486.427216 306.015138 
L 486.935123 307.371775 
L 487.443031 305.166109 
L 487.950939 307.704524 
L 488.458846 306.834525 
L 488.966754 299.683482 
L 489.474662 300.353575 
L 489.982569 307.010007 
L 490.490477 306.712567 
L 490.998384 307.166489 
L 491.506292 306.841226 
L 492.0142 306.117776 
L 492.522107 306.979397 
L 493.030015 306.82702 
L 493.537922 307.374283 
L 494.04583 307.444148 
L 494.553738 303.037247 
L 495.061645 297.334473 
L 496.07746 302.473019 
L 496.585368 307.320751 
L 497.093276 307.153856 
L 497.601183 306.492329 
L 498.109091 307.795354 
L 498.109091 307.795354 
" clip-path="url(#pa15a18c4c9)" style="fill: none; stroke: #ff00ff; stroke-linecap: square"/>
   </g>
   <g id="line2d_42">
    <path d="M 92.290909 55.8 
L 92.798817 141.24833 
L 93.306724 147.955212 
L 93.814632 157.951322 
L 94.32254 171.870474 
L 94.830447 224.957935 
L 95.338355 240.947316 
L 95.846262 246.23165 
L 96.862078 252.712413 
L 98.3858 261.992517 
L 100.417431 268.3371 
L 100.925338 269.77778 
L 101.941154 270.898754 
L 102.956969 273.21151 
L 103.972784 274.513192 
L 104.988599 276.300163 
L 105.496507 276.845564 
L 106.004415 277.73884 
L 106.512322 278.253954 
L 107.02023 278.970348 
L 107.528137 279.471501 
L 108.036045 279.624923 
L 108.543953 280.577992 
L 109.05186 281.143083 
L 110.575583 282.23799 
L 111.083491 282.305765 
L 111.591398 283.127828 
L 112.099306 283.522035 
L 112.607214 283.631836 
L 113.115121 284.26752 
L 114.130936 284.61636 
L 114.638844 284.156279 
L 115.146752 285.146757 
L 115.654659 285.883935 
L 116.162567 285.532691 
L 116.670474 286.203723 
L 117.178382 286.272561 
L 118.194197 287.223505 
L 118.702105 287.466258 
L 119.210013 287.574557 
L 119.71792 287.470359 
L 120.733735 288.1794 
L 121.241643 288.020414 
L 121.749551 288.496385 
L 122.257458 288.445637 
L 122.765366 288.884225 
L 123.273273 288.575267 
L 123.781181 289.195617 
L 124.289089 288.724258 
L 124.796996 289.546207 
L 125.304904 289.256453 
L 125.812811 289.405364 
L 126.320719 289.265351 
L 126.828627 289.730671 
L 127.336534 289.460928 
L 127.844442 289.685148 
L 128.35235 290.243085 
L 128.860257 290.057304 
L 129.876072 290.585837 
L 130.38398 290.531546 
L 130.891888 291.14919 
L 131.399795 291.051902 
L 131.907703 291.323883 
L 132.41561 291.376386 
L 132.923518 291.172454 
L 133.939333 291.576324 
L 134.447241 291.980403 
L 134.955148 291.567386 
L 135.463056 292.185039 
L 135.970964 291.695864 
L 136.478871 292.374179 
L 137.494687 292.384311 
L 138.510502 292.67613 
L 139.018409 292.272607 
L 139.526317 292.308567 
L 140.034225 292.699799 
L 141.05004 293.047241 
L 142.065855 293.075954 
L 142.573763 293.344325 
L 143.08167 292.915505 
L 143.589578 293.701186 
L 144.605393 293.65327 
L 145.113301 293.796377 
L 145.621208 293.479295 
L 146.129116 293.627694 
L 146.637024 294.078014 
L 147.144931 293.829397 
L 147.652839 294.199894 
L 148.668654 294.11156 
L 149.684469 294.456558 
L 150.192377 294.372948 
L 150.700284 294.173714 
L 151.208192 294.754183 
L 151.7161 294.460399 
L 152.224007 294.804113 
L 153.74773 294.762485 
L 154.255638 295.00963 
L 155.779361 294.636297 
L 156.287268 295.198724 
L 156.795176 295.197254 
L 157.303083 295.598231 
L 157.810991 295.501437 
L 158.318899 295.74218 
L 158.826806 295.384874 
L 159.842621 295.975985 
L 160.350529 295.951841 
L 160.858437 295.582721 
L 161.366344 295.800448 
L 161.874252 295.809612 
L 162.38216 296.001441 
L 163.397975 295.881088 
L 163.905882 296.019422 
L 164.41379 295.866748 
L 164.921698 296.090104 
L 165.937513 296.324775 
L 166.44542 296.038354 
L 166.953328 296.020971 
L 167.461236 296.42562 
L 167.969143 296.193777 
L 168.477051 296.448223 
L 168.984958 296.922108 
L 169.492866 296.63435 
L 170.000774 296.985007 
L 171.016589 296.987549 
L 173.048219 297.038233 
L 173.556127 297.011677 
L 174.064035 297.174224 
L 174.571942 296.988578 
L 175.07985 297.087731 
L 175.587757 297.043463 
L 176.095665 297.329709 
L 178.127295 297.515215 
L 178.635203 297.508326 
L 179.143111 297.364496 
L 179.651018 297.457478 
L 180.158926 297.324738 
L 181.174741 297.675335 
L 182.698464 298.045693 
L 183.206372 298.032549 
L 183.714279 297.90023 
L 184.222187 298.141073 
L 184.730094 298.009621 
L 185.238002 298.256579 
L 185.74591 297.982714 
L 186.253817 298.003947 
L 186.761725 298.476572 
L 187.269632 297.905354 
L 187.77754 298.234266 
L 188.285448 297.886432 
L 188.793355 298.292734 
L 189.301263 298.220453 
L 189.809171 298.472308 
L 190.317078 298.518476 
L 190.824986 298.200523 
L 191.332893 298.710372 
L 191.840801 298.454833 
L 192.348709 298.652535 
L 193.364524 298.601774 
L 193.872431 298.263442 
L 194.380339 298.78871 
L 194.888247 298.721712 
L 195.396154 298.825576 
L 195.904062 298.775524 
L 196.41197 299.025702 
L 196.919877 298.681469 
L 197.935692 299.158341 
L 198.4436 298.875404 
L 199.459415 299.24846 
L 199.967323 299.263669 
L 200.47523 298.787657 
L 200.983138 299.321111 
L 201.491046 299.378651 
L 201.998953 299.079838 
L 202.506861 299.175324 
L 203.014768 299.152806 
L 203.522676 299.529357 
L 204.030584 299.305957 
L 204.538491 299.586544 
L 205.046399 299.166264 
L 205.554307 299.567095 
L 206.062214 299.358113 
L 207.585937 299.631411 
L 208.093845 299.464065 
L 209.10966 299.892575 
L 209.617567 299.775003 
L 210.125475 299.492237 
L 210.633383 299.905145 
L 211.14129 299.781843 
L 211.649198 299.870384 
L 212.665013 299.666107 
L 213.172921 299.913085 
L 213.680828 299.724615 
L 214.188736 300.052904 
L 215.712459 299.758066 
L 216.220366 300.065462 
L 217.236182 299.950825 
L 218.251997 300.118062 
L 218.759904 299.783643 
L 219.267812 300.405211 
L 219.77572 300.184557 
L 220.283627 300.35631 
L 221.299442 300.378072 
L 221.80735 300.030373 
L 222.315258 300.596939 
L 222.823165 300.388086 
L 223.331073 300.482888 
L 223.838981 300.307442 
L 224.346888 300.336308 
L 225.362703 300.61105 
L 225.870611 300.532796 
L 226.378519 300.905129 
L 226.886426 300.446759 
L 227.394334 300.731545 
L 228.918057 300.616224 
L 229.425964 300.536421 
L 229.933872 301.095359 
L 230.441779 300.595803 
L 230.949687 300.568013 
L 231.457595 300.774622 
L 231.965502 300.588895 
L 233.489225 300.691666 
L 234.50504 301.030643 
L 235.012948 300.989167 
L 235.520856 301.169693 
L 236.536671 300.857124 
L 237.044578 301.163387 
L 237.552486 301.030193 
L 238.060394 301.291245 
L 238.568301 300.976196 
L 239.584117 301.401344 
L 240.092024 301.408388 
L 240.599932 301.125055 
L 241.107839 301.404637 
L 241.615747 301.223889 
L 242.631562 301.237996 
L 243.13947 301.119745 
L 243.647377 301.207775 
L 244.155285 301.59195 
L 244.663193 301.238753 
L 245.1711 301.532342 
L 245.679008 301.333651 
L 246.186915 301.541411 
L 247.710638 301.510566 
L 248.218546 301.787162 
L 248.726454 301.782523 
L 249.234361 301.531932 
L 249.742269 301.945708 
L 250.250176 301.602572 
L 250.758084 301.393596 
L 251.773899 301.729672 
L 252.281807 301.594132 
L 252.789714 301.760953 
L 253.297622 301.769898 
L 253.80553 301.621532 
L 254.313437 301.732065 
L 254.821345 302.037962 
L 255.329252 301.717299 
L 255.83716 301.588846 
L 256.345068 301.97223 
L 257.360883 301.581111 
L 257.868791 301.889369 
L 258.376698 301.667848 
L 258.884606 302.184607 
L 259.392513 302.294089 
L 259.900421 301.951593 
L 260.408329 302.183946 
L 260.916236 301.946474 
L 261.424144 302.000118 
L 261.932051 302.203974 
L 262.947867 302.092886 
L 263.455774 302.26179 
L 263.963682 301.896813 
L 264.471589 301.920224 
L 264.979497 302.15031 
L 265.487405 302.120963 
L 265.995312 302.330997 
L 266.50322 302.112103 
L 267.519035 302.29397 
L 268.026943 302.173809 
L 268.53485 302.301188 
L 269.042758 302.141229 
L 269.550666 302.389862 
L 270.058573 302.141407 
L 270.566481 302.262575 
L 271.074388 302.194563 
L 271.582296 302.683981 
L 272.090204 302.348961 
L 272.598111 302.366797 
L 273.106019 302.868516 
L 273.613926 302.241237 
L 275.137649 302.669537 
L 275.645557 302.79646 
L 276.661372 302.635944 
L 277.16928 302.960079 
L 277.677187 302.657265 
L 278.185095 302.53838 
L 278.693003 302.839235 
L 279.20091 302.434564 
L 279.708818 302.819715 
L 280.216725 302.989634 
L 280.724633 302.536766 
L 281.232541 302.771859 
L 282.248356 302.706586 
L 282.756264 302.911777 
L 283.772079 302.74833 
L 284.787894 302.808792 
L 285.295802 303.179344 
L 286.311617 302.97588 
L 286.819524 303.185573 
L 287.327432 303.023357 
L 289.359062 303.030985 
L 291.390693 303.09126 
L 291.898601 303.245503 
L 293.422323 302.966043 
L 293.930231 303.208393 
L 294.946046 303.219958 
L 295.961861 302.956642 
L 296.469769 303.115662 
L 296.977677 303.437031 
L 297.485584 303.431425 
L 297.993492 303.210353 
L 298.501399 303.375432 
L 299.517215 303.422243 
L 301.040938 303.372246 
L 301.548845 303.480995 
L 302.056753 303.361406 
L 302.56466 303.591638 
L 303.072568 303.47998 
L 303.580476 303.663084 
L 304.088383 303.692737 
L 304.596291 303.516484 
L 305.104198 303.610162 
L 305.612106 303.340955 
L 306.120014 303.327567 
L 306.627921 303.801178 
L 307.135829 303.551383 
L 307.643736 303.713775 
L 308.151644 303.526339 
L 309.675367 303.63649 
L 310.183275 303.381234 
L 310.691182 303.983492 
L 312.214905 303.600661 
L 312.722813 303.865566 
L 313.23072 303.92564 
L 313.738628 303.809204 
L 314.246535 303.86461 
L 314.754443 303.587428 
L 315.262351 303.895201 
L 319.833519 303.714145 
L 320.341427 303.886689 
L 320.849334 303.745886 
L 322.880965 304.104524 
L 323.388872 304.039073 
L 323.89678 304.40236 
L 324.404688 303.938018 
L 324.912595 304.262374 
L 325.928411 304.05819 
L 326.436318 304.501025 
L 326.944226 304.103441 
L 327.452133 304.241092 
L 327.960041 304.106015 
L 329.483764 304.240871 
L 330.499579 304.158549 
L 331.007487 304.262784 
L 331.515394 304.224439 
L 332.023302 304.069061 
L 332.531209 304.278407 
L 333.547025 304.368322 
L 334.054932 304.050301 
L 334.56284 304.342588 
L 335.070748 304.220411 
L 335.578655 304.461493 
L 336.086563 304.376133 
L 336.59447 304.577805 
L 337.102378 304.312062 
L 337.610286 304.592688 
L 338.118193 304.705734 
L 338.626101 304.406196 
L 339.134008 304.501452 
L 339.641916 304.802805 
L 340.149824 304.566489 
L 340.657731 304.581637 
L 341.165639 304.31097 
L 342.181454 304.689102 
L 343.197269 304.49402 
L 343.705177 304.760902 
L 344.213085 304.401108 
L 345.2289 304.78968 
L 346.244715 304.463554 
L 346.752623 304.700189 
L 347.26053 304.402509 
L 348.276345 304.668826 
L 348.784253 304.58819 
L 349.292161 304.827708 
L 350.307976 304.651632 
L 350.815883 304.765041 
L 351.323791 305.075531 
L 352.339606 304.726369 
L 353.355422 304.822777 
L 354.371237 305.190046 
L 354.879144 304.794411 
L 356.402867 305.130631 
L 356.910775 304.958265 
L 357.418682 304.939633 
L 357.92659 305.074091 
L 358.942405 304.938777 
L 359.450313 304.986227 
L 359.958221 304.881071 
L 360.466128 304.972809 
L 360.974036 304.764034 
L 361.481943 304.90016 
L 361.989851 305.249467 
L 362.497759 305.085215 
L 363.005666 305.308686 
L 363.513574 305.065516 
L 364.021481 305.047799 
L 364.529389 305.379464 
L 365.545204 305.184551 
L 366.053112 304.965469 
L 366.561019 305.206819 
L 367.576835 305.229215 
L 368.084742 305.078493 
L 369.100558 305.228845 
L 369.608465 304.994457 
L 370.116373 305.375581 
L 370.62428 305.304583 
L 371.640096 305.44161 
L 373.671726 305.083873 
L 374.179634 305.405213 
L 374.687541 305.492875 
L 375.195449 305.384492 
L 375.703356 305.405449 
L 376.211264 305.303059 
L 376.719172 305.640024 
L 377.734987 305.411441 
L 378.242895 305.773594 
L 378.750802 305.473126 
L 379.766617 305.52497 
L 380.782433 305.580403 
L 381.29034 305.412926 
L 384.337786 305.504612 
L 384.845693 305.79711 
L 385.353601 305.673308 
L 385.861509 305.803982 
L 386.369416 305.536027 
L 386.877324 305.884867 
L 387.385232 305.69748 
L 387.893139 305.707226 
L 388.401047 305.897969 
L 388.908954 305.604809 
L 389.416862 305.836294 
L 389.92477 305.884503 
L 390.432677 306.072032 
L 390.940585 305.615299 
L 391.9564 305.74014 
L 392.464308 305.51654 
L 392.972215 305.934812 
L 393.480123 305.852869 
L 393.98803 305.626889 
L 394.495938 305.801928 
L 395.511753 305.660374 
L 396.019661 305.952419 
L 396.527569 305.640953 
L 397.543384 305.934643 
L 398.051291 306.018288 
L 398.559199 305.78259 
L 399.575014 306.140337 
L 400.590829 305.977448 
L 401.606645 306.017099 
L 402.114552 305.92309 
L 402.62246 306.074609 
L 403.638275 306.101361 
L 404.65409 305.921797 
L 405.161998 306.009038 
L 405.669906 305.918066 
L 406.177813 306.090476 
L 407.701536 306.004661 
L 408.209444 306.240634 
L 408.717351 306.302213 
L 409.225259 306.122458 
L 409.733166 306.222914 
L 410.748982 306.110055 
L 411.256889 306.236743 
L 411.764797 305.988453 
L 412.780612 306.299131 
L 416.843873 306.320181 
L 417.351781 306.361929 
L 417.859688 306.095415 
L 418.875503 306.365934 
L 419.383411 306.268682 
L 419.891319 306.4892 
L 420.399226 306.24677 
L 421.415042 306.392247 
L 421.922949 306.176472 
L 422.430857 306.444415 
L 422.938764 306.352429 
L 423.446672 306.56226 
L 423.95458 306.185613 
L 424.462487 306.437378 
L 425.478302 306.578775 
L 426.494118 306.568864 
L 427.509933 306.440356 
L 428.01784 306.543599 
L 428.525748 306.432462 
L 430.557379 306.696596 
L 431.065286 306.529698 
L 431.573194 306.624122 
L 434.620639 306.481048 
L 435.128547 306.72184 
L 435.636455 306.627089 
L 436.65227 306.775402 
L 437.160177 306.581579 
L 438.175993 306.82938 
L 438.6839 306.951154 
L 439.191808 306.696794 
L 439.699716 306.661992 
L 440.207623 306.888818 
L 440.715531 306.959826 
L 441.223438 306.895118 
L 442.239254 306.504034 
L 442.747161 306.83203 
L 444.270884 306.823308 
L 444.778792 306.903841 
L 445.286699 306.561491 
L 446.302515 306.894753 
L 447.31833 306.752383 
L 447.826237 306.975492 
L 448.842053 306.788131 
L 449.34996 306.926901 
L 450.365775 306.75332 
L 451.381591 306.932904 
L 451.889498 306.943375 
L 452.397406 307.091131 
L 452.905313 306.893448 
L 453.413221 307.055779 
L 454.936944 307.008264 
L 455.444852 307.175455 
L 455.952759 306.992303 
L 456.460667 306.927294 
L 456.968574 307.06137 
L 457.476482 307.032568 
L 457.98439 307.119122 
L 458.492297 306.978187 
L 459.000205 307.105523 
L 459.508112 307.015653 
L 460.01602 307.17674 
L 460.523928 307.025052 
L 461.031835 307.131262 
L 461.539743 307.092068 
L 462.04765 307.266531 
L 463.063466 307.084604 
L 463.571373 307.319041 
L 464.587189 307.308743 
L 465.095096 306.997544 
L 465.603004 307.01216 
L 466.110911 307.372094 
L 466.618819 307.082087 
L 467.126727 307.165426 
L 467.634634 307.366423 
L 468.142542 307.430491 
L 469.666265 307.250529 
L 470.174172 307.385953 
L 470.68208 307.270056 
L 473.729526 307.338295 
L 474.237433 307.042115 
L 475.253248 307.609418 
L 475.761156 307.26021 
L 476.269064 307.304631 
L 476.776971 307.526403 
L 477.284879 307.266812 
L 477.792786 307.624577 
L 478.300694 307.409958 
L 478.808602 307.619119 
L 479.316509 307.348247 
L 479.824417 307.61802 
L 480.332324 307.430079 
L 481.34814 307.535503 
L 481.856047 307.421457 
L 482.363955 307.623222 
L 483.37977 307.226496 
L 483.887678 307.494345 
L 484.395585 307.608194 
L 486.935123 307.42573 
L 487.443031 307.701695 
L 487.950939 307.491745 
L 488.458846 307.574305 
L 489.474662 307.565829 
L 490.490477 307.625127 
L 491.506292 307.567156 
L 492.0142 307.73949 
L 492.522107 307.549387 
L 493.030015 307.52931 
L 493.537922 307.8 
L 494.04583 307.488895 
L 495.061645 307.750152 
L 495.569553 307.607367 
L 496.585368 307.657832 
L 497.093276 307.547088 
L 498.109091 307.767298 
L 498.109091 307.767298 
" clip-path="url(#pa15a18c4c9)" style="fill: none; stroke-dasharray: 3.7,1.6; stroke-dashoffset: 0; stroke: #0000ff"/>
   </g>
   <g id="patch_3">
    <path d="M 72 320.4 
L 72 43.2 
" style="fill: none; stroke: #000000; stroke-width: 0.8; stroke-linejoin: miter; stroke-linecap: square"/>
   </g>
   <g id="patch_4">
    <path d="M 518.4 320.4 
L 518.4 43.2 
" style="fill: none; stroke: #000000; stroke-width: 0.8; stroke-linejoin: miter; stroke-linecap: square"/>
   </g>
   <g id="patch_5">
    <path d="M 72 320.4 
L 518.4 320.4 
" style="fill: none; stroke: #000000; stroke-width: 0.8; stroke-linejoin: miter; stroke-linecap: square"/>
   </g>
   <g id="patch_6">
    <path d="M 72 43.2 
L 518.4 43.2 
" style="fill: none; stroke: #000000; stroke-width: 0.8; stroke-linejoin: miter; stroke-linecap: square"/>
   </g>
   <g id="text_14">
    <!-- $\mathbf{Expected Mass vs. Predicted Mass}$ -->
    <g transform="translate(186.24 37.2) scale(0.12 -0.12)">
     <defs>
      <path id="DejaVuSans-Bold-78" d="M 1422 1791 
L 159 3500 
L 1344 3500 
L 2059 2463 
L 2784 3500 
L 3969 3500 
L 2706 1797 
L 4031 0 
L 2847 0 
L 2059 1106 
L 1281 0 
L 97 0 
L 1422 1791 
z
" transform="scale(0.015625)"/>
      <path id="DejaVuSans-Bold-65" d="M 4031 1759 
L 4031 1441 
L 1416 1441 
Q 1456 1047 1700 850 
Q 1944 653 2381 653 
Q 2734 653 3104 758 
Q 3475 863 3866 1075 
L 3866 213 
Q 3469 63 3072 -14 
Q 2675 -91 2278 -91 
Q 1328 -91 801 392 
Q 275 875 275 1747 
Q 275 2603 792 3093 
Q 1309 3584 2216 3584 
Q 3041 3584 3536 3087 
Q 4031 2591 4031 1759 
z
M 2881 2131 
Q 2881 2450 2695 2645 
Q 2509 2841 2209 2841 
Q 1884 2841 1681 2658 
Q 1478 2475 1428 2131 
L 2881 2131 
z
" transform="scale(0.015625)"/>
      <path id="DejaVuSans-Bold-74" d="M 1759 4494 
L 1759 3500 
L 2913 3500 
L 2913 2700 
L 1759 2700 
L 1759 1216 
Q 1759 972 1856 886 
Q 1953 800 2241 800 
L 2816 800 
L 2816 0 
L 1856 0 
Q 1194 0 917 276 
Q 641 553 641 1216 
L 641 2700 
L 84 2700 
L 84 3500 
L 641 3500 
L 641 4494 
L 1759 4494 
z
" transform="scale(0.015625)"/>
      <path id="DejaVuSans-Bold-64" d="M 2919 2988 
L 2919 4863 
L 4044 4863 
L 4044 0 
L 2919 0 
L 2919 506 
Q 2688 197 2409 53 
Q 2131 -91 1766 -91 
Q 1119 -91 703 423 
Q 288 938 288 1747 
Q 288 2556 703 3070 
Q 1119 3584 1766 3584 
Q 2128 3584 2408 3439 
Q 2688 3294 2919 2988 
z
M 2181 722 
Q 2541 722 2730 984 
Q 2919 1247 2919 1747 
Q 2919 2247 2730 2509 
Q 2541 2772 2181 2772 
Q 1825 2772 1636 2509 
Q 1447 2247 1447 1747 
Q 1447 1247 1636 984 
Q 1825 722 2181 722 
z
" transform="scale(0.015625)"/>
      <path id="DejaVuSans-Bold-4d" d="M 588 4666 
L 2119 4666 
L 3181 2169 
L 4250 4666 
L 5778 4666 
L 5778 0 
L 4641 0 
L 4641 3413 
L 3566 897 
L 2803 897 
L 1728 3413 
L 1728 0 
L 588 0 
L 588 4666 
z
" transform="scale(0.015625)"/>
      <path id="DejaVuSans-Bold-61" d="M 2106 1575 
Q 1756 1575 1579 1456 
Q 1403 1338 1403 1106 
Q 1403 894 1545 773 
Q 1688 653 1941 653 
Q 2256 653 2472 879 
Q 2688 1106 2688 1447 
L 2688 1575 
L 2106 1575 
z
M 3816 1997 
L 3816 0 
L 2688 0 
L 2688 519 
Q 2463 200 2181 54 
Q 1900 -91 1497 -91 
Q 953 -91 614 226 
Q 275 544 275 1050 
Q 275 1666 698 1953 
Q 1122 2241 2028 2241 
L 2688 2241 
L 2688 2328 
Q 2688 2594 2478 2717 
Q 2269 2841 1825 2841 
Q 1466 2841 1156 2769 
Q 847 2697 581 2553 
L 581 3406 
Q 941 3494 1303 3539 
Q 1666 3584 2028 3584 
Q 2975 3584 3395 3211 
Q 3816 2838 3816 1997 
z
" transform="scale(0.015625)"/>
      <path id="DejaVuSans-Bold-76" d="M 97 3500 
L 1216 3500 
L 2088 1081 
L 2956 3500 
L 4078 3500 
L 2700 0 
L 1472 0 
L 97 3500 
z
" transform="scale(0.015625)"/>
      <path id="DejaVuSans-Bold-2e" d="M 653 1209 
L 1778 1209 
L 1778 0 
L 653 0 
L 653 1209 
z
" transform="scale(0.015625)"/>
      <path id="DejaVuSans-Bold-50" d="M 588 4666 
L 2584 4666 
Q 3475 4666 3951 4270 
Q 4428 3875 4428 3144 
Q 4428 2409 3951 2014 
Q 3475 1619 2584 1619 
L 1791 1619 
L 1791 0 
L 588 0 
L 588 4666 
z
M 1791 3794 
L 1791 2491 
L 2456 2491 
Q 2806 2491 2997 2661 
Q 3188 2831 3188 3144 
Q 3188 3456 2997 3625 
Q 2806 3794 2456 3794 
L 1791 3794 
z
" transform="scale(0.015625)"/>
      <path id="DejaVuSans-Bold-72" d="M 3138 2547 
Q 2991 2616 2845 2648 
Q 2700 2681 2553 2681 
Q 2122 2681 1889 2404 
Q 1656 2128 1656 1613 
L 1656 0 
L 538 0 
L 538 3500 
L 1656 3500 
L 1656 2925 
Q 1872 3269 2151 3426 
Q 2431 3584 2822 3584 
Q 2878 3584 2943 3579 
Q 3009 3575 3134 3559 
L 3138 2547 
z
" transform="scale(0.015625)"/>
      <path id="DejaVuSans-Bold-69" d="M 538 3500 
L 1656 3500 
L 1656 0 
L 538 0 
L 538 3500 
z
M 538 4863 
L 1656 4863 
L 1656 3950 
L 538 3950 
L 538 4863 
z
" transform="scale(0.015625)"/>
     </defs>
     <use xlink:href="#DejaVuSans-Bold-45" transform="translate(0 0.015625)"/>
     <use xlink:href="#DejaVuSans-Bold-78" transform="translate(68.310547 0.015625)"/>
     <use xlink:href="#DejaVuSans-Bold-70" transform="translate(132.8125 0.015625)"/>
     <use xlink:href="#DejaVuSans-Bold-65" transform="translate(204.394531 0.015625)"/>
     <use xlink:href="#DejaVuSans-Bold-63" transform="translate(272.216797 0.015625)"/>
     <use xlink:href="#DejaVuSans-Bold-74" transform="translate(331.494141 0.015625)"/>
     <use xlink:href="#DejaVuSans-Bold-65" transform="translate(379.296875 0.015625)"/>
     <use xlink:href="#DejaVuSans-Bold-64" transform="translate(447.119141 0.015625)"/>
     <use xlink:href="#DejaVuSans-Bold-4d" transform="translate(518.701172 0.015625)"/>
     <use xlink:href="#DejaVuSans-Bold-61" transform="translate(618.212891 0.015625)"/>
     <use xlink:href="#DejaVuSans-Bold-73" transform="translate(685.693359 0.015625)"/>
     <use xlink:href="#DejaVuSans-Bold-73" transform="translate(745.214844 0.015625)"/>
     <use xlink:href="#DejaVuSans-Bold-76" transform="translate(804.736328 0.015625)"/>
     <use xlink:href="#DejaVuSans-Bold-73" transform="translate(869.921875 0.015625)"/>
     <use xlink:href="#DejaVuSans-Bold-2e" transform="translate(929.443359 0.015625)"/>
     <use xlink:href="#DejaVuSans-Bold-50" transform="translate(986.914062 0.015625)"/>
     <use xlink:href="#DejaVuSans-Bold-72" transform="translate(1060.205078 0.015625)"/>
     <use xlink:href="#DejaVuSans-Bold-65" transform="translate(1109.521484 0.015625)"/>
     <use xlink:href="#DejaVuSans-Bold-64" transform="translate(1177.34375 0.015625)"/>
     <use xlink:href="#DejaVuSans-Bold-69" transform="translate(1248.925781 0.015625)"/>
     <use xlink:href="#DejaVuSans-Bold-63" transform="translate(1283.203125 0.015625)"/>
     <use xlink:href="#DejaVuSans-Bold-74" transform="translate(1342.480469 0.015625)"/>
     <use xlink:href="#DejaVuSans-Bold-65" transform="translate(1390.283203 0.015625)"/>
     <use xlink:href="#DejaVuSans-Bold-64" transform="translate(1458.105469 0.015625)"/>
     <use xlink:href="#DejaVuSans-Bold-4d" transform="translate(1529.6875 0.015625)"/>
     <use xlink:href="#DejaVuSans-Bold-61" transform="translate(1629.199219 0.015625)"/>
     <use xlink:href="#DejaVuSans-Bold-73" transform="translate(1696.679688 0.015625)"/>
     <use xlink:href="#DejaVuSans-Bold-73" transform="translate(1756.201172 0.015625)"/>
    </g>
   </g>
   <g id="legend_1">
    <g id="patch_7">
     <path d="M 440.259375 80.834375 
L 511.4 80.834375 
Q 513.4 80.834375 513.4 78.834375 
L 513.4 50.2 
Q 513.4 48.2 511.4 48.2 
L 440.259375 48.2 
Q 438.259375 48.2 438.259375 50.2 
L 438.259375 78.834375 
Q 438.259375 80.834375 440.259375 80.834375 
z
" style="fill: #ffffff; opacity: 0.8; stroke: #cccccc; stroke-linejoin: miter"/>
    </g>
    <g id="line2d_43">
     <path d="M 442.259375 56.298437 
L 452.259375 56.298437 
L 462.259375 56.298437 
" style="fill: none; stroke: #ff00ff; stroke-linecap: square"/>
    </g>
    <g id="text_15">
     <!-- val_loss -->
     <g transform="translate(470.259375 59.798437) scale(0.1 -0.1)">
      <defs>
       <path id="DejaVuSans-76" d="M 191 3500 
L 800 3500 
L 1894 563 
L 2988 3500 
L 3597 3500 
L 2284 0 
L 1503 0 
L 191 3500 
z
" transform="scale(0.015625)"/>
       <path id="DejaVuSans-61" d="M 2194 1759 
Q 1497 1759 1228 1600 
Q 959 1441 959 1056 
Q 959 750 1161 570 
Q 1363 391 1709 391 
Q 2188 391 2477 730 
Q 2766 1069 2766 1631 
L 2766 1759 
L 2194 1759 
z
M 3341 1997 
L 3341 0 
L 2766 0 
L 2766 531 
Q 2569 213 2275 61 
Q 1981 -91 1556 -91 
Q 1019 -91 701 211 
Q 384 513 384 1019 
Q 384 1609 779 1909 
Q 1175 2209 1959 2209 
L 2766 2209 
L 2766 2266 
Q 2766 2663 2505 2880 
Q 2244 3097 1772 3097 
Q 1472 3097 1187 3025 
Q 903 2953 641 2809 
L 641 3341 
Q 956 3463 1253 3523 
Q 1550 3584 1831 3584 
Q 2591 3584 2966 3190 
Q 3341 2797 3341 1997 
z
" transform="scale(0.015625)"/>
       <path id="DejaVuSans-6c" d="M 603 4863 
L 1178 4863 
L 1178 0 
L 603 0 
L 603 4863 
z
" transform="scale(0.015625)"/>
       <path id="DejaVuSans-5f" d="M 3263 -1063 
L 3263 -1509 
L -63 -1509 
L -63 -1063 
L 3263 -1063 
z
" transform="scale(0.015625)"/>
       <path id="DejaVuSans-6f" d="M 1959 3097 
Q 1497 3097 1228 2736 
Q 959 2375 959 1747 
Q 959 1119 1226 758 
Q 1494 397 1959 397 
Q 2419 397 2687 759 
Q 2956 1122 2956 1747 
Q 2956 2369 2687 2733 
Q 2419 3097 1959 3097 
z
M 1959 3584 
Q 2709 3584 3137 3096 
Q 3566 2609 3566 1747 
Q 3566 888 3137 398 
Q 2709 -91 1959 -91 
Q 1206 -91 779 398 
Q 353 888 353 1747 
Q 353 2609 779 3096 
Q 1206 3584 1959 3584 
z
" transform="scale(0.015625)"/>
       <path id="DejaVuSans-73" d="M 2834 3397 
L 2834 2853 
Q 2591 2978 2328 3040 
Q 2066 3103 1784 3103 
Q 1356 3103 1142 2972 
Q 928 2841 928 2578 
Q 928 2378 1081 2264 
Q 1234 2150 1697 2047 
L 1894 2003 
Q 2506 1872 2764 1633 
Q 3022 1394 3022 966 
Q 3022 478 2636 193 
Q 2250 -91 1575 -91 
Q 1294 -91 989 -36 
Q 684 19 347 128 
L 347 722 
Q 666 556 975 473 
Q 1284 391 1588 391 
Q 1994 391 2212 530 
Q 2431 669 2431 922 
Q 2431 1156 2273 1281 
Q 2116 1406 1581 1522 
L 1381 1569 
Q 847 1681 609 1914 
Q 372 2147 372 2553 
Q 372 3047 722 3315 
Q 1072 3584 1716 3584 
Q 2034 3584 2315 3537 
Q 2597 3491 2834 3397 
z
" transform="scale(0.015625)"/>
      </defs>
      <use xlink:href="#DejaVuSans-76"/>
      <use xlink:href="#DejaVuSans-61" x="59.179688"/>
      <use xlink:href="#DejaVuSans-6c" x="120.458984"/>
      <use xlink:href="#DejaVuSans-5f" x="148.242188"/>
      <use xlink:href="#DejaVuSans-6c" x="198.242188"/>
      <use xlink:href="#DejaVuSans-6f" x="226.025391"/>
      <use xlink:href="#DejaVuSans-73" x="287.207031"/>
      <use xlink:href="#DejaVuSans-73" x="339.306641"/>
     </g>
    </g>
    <g id="line2d_44">
     <path d="M 442.259375 71.254687 
L 452.259375 71.254687 
L 462.259375 71.254687 
" style="fill: none; stroke-dasharray: 3.7,1.6; stroke-dashoffset: 0; stroke: #0000ff"/>
    </g>
    <g id="text_16">
     <!-- loss -->
     <g transform="translate(470.259375 74.754687) scale(0.1 -0.1)">
      <use xlink:href="#DejaVuSans-6c"/>
      <use xlink:href="#DejaVuSans-6f" x="27.783203"/>
      <use xlink:href="#DejaVuSans-73" x="88.964844"/>
      <use xlink:href="#DejaVuSans-73" x="141.064453"/>
     </g>
    </g>
   </g>
  </g>
 </g>
 <defs>
  <clipPath id="pa15a18c4c9">
   <rect x="72" y="43.2" width="446.4" height="277.2"/>
  </clipPath>
 </defs>
</svg>
